<?xml version="1.0" encoding="utf-8"?>
<!-- Generator: Adobe Illustrator 16.0.0, SVG Export Plug-In . SVG Version: 6.00 Build 0)  -->
<!DOCTYPE svg PUBLIC "-//W3C//DTD SVG 1.1//EN" "http://www.w3.org/Graphics/SVG/1.1/DTD/svg11.dtd">
<svg version="1.1" id="Layer_1" xmlns="http://www.w3.org/2000/svg" xmlns:xlink="http://www.w3.org/1999/xlink" x="0px" y="0px"
	 width="278.977px" height="104.5px" viewBox="0 0 278.977 104.5" enable-background="new 0 0 278.977 104.5" xml:space="preserve">
<g>
	<path fill="#FF9900" d="M24.234,48.369l-2.159,6.538H19.3l7.062-20.785H29.6l7.093,20.785h-2.868l-2.22-6.538H24.234z
		 M31.049,46.271l-2.035-5.982c-0.462-1.357-0.771-2.59-1.079-3.793h-0.062c-0.308,1.233-0.647,2.498-1.048,3.762l-2.035,6.013
		H31.049z"/>
	<path fill="#FF9900" d="M39.655,44.021c0-1.542-0.031-2.806-0.123-4.04h2.375l0.123,2.406h0.093
		c0.833-1.419,2.22-2.745,4.688-2.745c2.035,0,3.577,1.233,4.225,2.991h0.062c0.463-0.833,1.049-1.48,1.666-1.943
		c0.894-0.678,1.881-1.048,3.3-1.048c1.974,0,4.903,1.295,4.903,6.476v8.789h-2.652v-8.45c0-2.868-1.048-4.595-3.238-4.595
		c-1.542,0-2.745,1.141-3.208,2.467c-0.123,0.37-0.216,0.864-0.216,1.357v9.221h-2.652v-8.943c0-2.375-1.049-4.102-3.115-4.102
		c-1.696,0-2.93,1.357-3.361,2.714c-0.154,0.401-0.216,0.863-0.216,1.326v9.005h-2.652V44.021z"/>
	<path fill="#FF9900" d="M73.64,54.906l-0.216-1.881h-0.092c-0.833,1.172-2.437,2.22-4.564,2.22c-3.022,0-4.564-2.128-4.564-4.286
		c0-3.608,3.208-5.582,8.974-5.551V45.1c0-1.233-0.339-3.454-3.392-3.454c-1.388,0-2.837,0.432-3.886,1.11l-0.617-1.789
		c1.233-0.802,3.022-1.326,4.903-1.326c4.564,0,5.674,3.114,5.674,6.106v5.582c0,1.295,0.062,2.56,0.247,3.577H73.64z
		 M73.239,47.289c-2.96-0.062-6.322,0.463-6.322,3.361c0,1.758,1.172,2.591,2.56,2.591c1.943,0,3.176-1.234,3.608-2.498
		c0.093-0.277,0.154-0.586,0.154-0.863V47.289z"/>
	<path fill="#FF9900" d="M78.545,53.334l6.753-8.789c0.647-0.802,1.264-1.511,1.943-2.313V42.17h-8.08V39.98h11.379l-0.031,1.696
		l-6.661,8.666c-0.617,0.833-1.234,1.573-1.912,2.344v0.062h8.727v2.159H78.545V53.334z"/>
	<path fill="#FF9900" d="M106.948,47.32c0,5.52-3.824,7.925-7.432,7.925c-4.04,0-7.154-2.96-7.154-7.678
		c0-4.996,3.269-7.925,7.401-7.925C104.049,39.642,106.948,42.756,106.948,47.32z M95.106,47.474c0,3.269,1.881,5.736,4.533,5.736
		c2.59,0,4.533-2.436,4.533-5.797c0-2.529-1.265-5.736-4.472-5.736S95.106,44.637,95.106,47.474z"/>
	<path fill="#FF9900" d="M110.371,44.021c0-1.542-0.031-2.806-0.123-4.04h2.405l0.154,2.467h0.062
		c0.74-1.418,2.467-2.806,4.934-2.806c2.066,0,5.273,1.233,5.273,6.353v8.912h-2.714v-8.604c0-2.405-0.894-4.41-3.454-4.41
		c-1.789,0-3.177,1.264-3.639,2.775c-0.124,0.339-0.185,0.802-0.185,1.265v8.974h-2.714V44.021z"/>
</g>
<g>
	<path fill="#FF9900" d="M129.032,72.764c1.345,0.688,3.412,1.378,5.544,1.378c2.296,0,3.51-0.951,3.51-2.396
		c0-1.378-1.05-2.165-3.707-3.116c-3.674-1.279-6.069-3.313-6.069-6.528c0-3.772,3.149-6.66,8.366-6.66
		c2.494,0,4.331,0.525,5.643,1.115l-1.116,4.036c-0.886-0.427-2.46-1.051-4.625-1.051c-2.165,0-3.215,0.984-3.215,2.133
		c0,1.411,1.247,2.034,4.101,3.117c3.903,1.443,5.741,3.477,5.741,6.594c0,3.707-2.854,6.856-8.924,6.856
		c-2.526,0-5.019-0.656-6.266-1.345L129.032,72.764z"/>
	<path fill="#FF9900" d="M162.266,69.713c0,5.872-4.166,8.563-8.464,8.563c-4.691,0-8.3-3.084-8.3-8.268s3.411-8.497,8.563-8.497
		C158.986,61.511,162.266,64.89,162.266,69.713z M150.653,69.877c0,2.755,1.148,4.822,3.28,4.822c1.936,0,3.183-1.936,3.183-4.822
		c0-2.396-0.919-4.823-3.183-4.823C151.538,65.054,150.653,67.515,150.653,69.877z"/>
	<path fill="#FF9900" d="M165.349,54.621h4.986v23.293h-4.986V54.621z"/>
	<path fill="#FF9900" d="M189.922,54.621v18.503c0,1.805,0.065,3.707,0.131,4.79h-4.429l-0.229-2.362h-0.065
		c-1.018,1.805-2.953,2.724-5.02,2.724c-3.806,0-6.856-3.248-6.856-8.235c-0.033-5.412,3.346-8.529,7.185-8.529
		c1.968,0,3.51,0.689,4.231,1.805h0.065v-8.694H189.922z M184.935,68.663c0-0.263-0.032-0.624-0.065-0.886
		c-0.295-1.346-1.378-2.461-2.92-2.461c-2.264,0-3.444,2.034-3.444,4.561c0,2.723,1.345,4.429,3.412,4.429
		c1.443,0,2.592-0.984,2.887-2.396c0.099-0.36,0.131-0.722,0.131-1.147V68.663z"/>
	<path fill="#FF9900" d="M220.957,66.629c0,7.25-4.396,11.646-10.859,11.646c-6.562,0-10.399-4.954-10.399-11.253
		c0-6.627,4.231-11.581,10.761-11.581C217.249,55.441,220.957,60.526,220.957,66.629z M204.98,66.924
		c0,4.33,2.034,7.382,5.381,7.382c3.379,0,5.314-3.215,5.314-7.513c0-3.97-1.902-7.382-5.348-7.382
		C206.948,59.411,204.98,62.626,204.98,66.924z"/>
	<path fill="#FF9900" d="M239.198,72.764c0,2.1,0.065,3.806,0.131,5.15h-4.33l-0.229-2.264h-0.099
		c-0.623,0.984-2.133,2.625-5.02,2.625c-3.248,0-5.643-2.034-5.643-6.988v-9.415h5.02V70.5c0,2.329,0.755,3.739,2.493,3.739
		c1.378,0,2.165-0.951,2.493-1.738c0.132-0.295,0.164-0.688,0.164-1.083v-9.546h5.02V72.764z"/>
	<path fill="#FF9900" d="M248.777,57.279v4.593h3.576v3.674h-3.576v5.807c0,1.936,0.459,2.821,1.969,2.821
		c0.623,0,1.115-0.065,1.477-0.131l0.032,3.772c-0.656,0.263-1.837,0.427-3.248,0.427c-1.607,0-2.952-0.558-3.739-1.378
		c-0.919-0.951-1.378-2.493-1.378-4.757v-6.562h-2.133v-3.674h2.133v-3.478L248.777,57.279z"/>
</g>
<g>
	<g>
		<path fill="#FF9900" d="M210.483,13.922c-0.421-0.486-1.025-0.754-1.662-0.754h-30.536l-0.421-2.579
			c-0.185-1.069-1.101-1.845-2.18-1.845h-4.973c-1.219,0-2.211,0.991-2.211,2.211c0,1.219,0.992,2.212,2.211,2.212h3.097
			l4.108,24.658c0.022,0.094,0.065,0.183,0.099,0.27c0.042,0.119,0.063,0.227,0.117,0.334c0.077,0.151,0.174,0.27,0.271,0.399
			c0.064,0.086,0.128,0.173,0.205,0.245c0.129,0.119,0.28,0.208,0.432,0.294c0.086,0.041,0.149,0.107,0.246,0.14
			c0.261,0.097,0.53,0.162,0.811,0.162h24.303c1.219,0,2.211-0.981,2.211-2.213c0-1.217-0.992-2.199-2.211-2.199h-22.425
			l-0.367-2.211h25.003c1.101,0,2.027-0.808,2.188-1.898l2.201-15.468C211.096,15.043,210.903,14.408,210.483,13.922L210.483,13.922
			z M206.265,17.578l-0.626,4.424h-7.863v-4.424H206.265z M195.565,17.578v4.424h-6.634v-4.424H195.565z M195.565,24.215v4.41
			h-6.634v-4.41H195.565z M186.73,17.578v4.424h-6.634c-0.119,0-0.216,0.033-0.323,0.063l-0.744-4.487H186.73z M180.128,24.215
			h6.602v4.41h-5.867L180.128,24.215z M197.776,28.625v-4.41h7.551l-0.636,4.41H197.776z M197.776,28.625"/>
		<path fill="#FF9900" d="M186.73,45.193c0,1.834-1.488,3.309-3.322,3.309c-1.824,0-3.312-1.475-3.312-3.309
			c0-1.823,1.487-3.312,3.312-3.312C185.241,41.881,186.73,43.37,186.73,45.193L186.73,45.193z M186.73,45.193"/>
		<path fill="#FF9900" d="M206.61,45.193c0,1.834-1.488,3.309-3.312,3.309c-1.834,0-3.322-1.475-3.322-3.309
			c0-1.823,1.488-3.312,3.322-3.312C205.121,41.881,206.61,43.37,206.61,45.193L206.61,45.193z M206.61,45.193"/>
	</g>
</g>
<g>
	<defs>
		<path id="SVGID_1_" d="M163.239,7.5l0.75,23.25l-134,0.5l-10.5,5.25l4,18.75c0,0,42.25-0.25,43.5-0.25s138.25,9,138.25,9
			l12.75-13.75l1.75-22l-0.25-10.5c0,0,31.25-10.25,32-10.5s42.5,17.75,42.5,17.75l-4,41.5l-142.75,32.75L39.489,92l-32-23.75
			l-11.5-37.75l21.25-26l61.25-9L163.239,7.5z"/>
	</defs>
	<clipPath id="SVGID_2_">
		<use xlink:href="#SVGID_1_"  overflow="visible"/>
	</clipPath>
	<g clip-path="url(#SVGID_2_)">
		<defs>
			<path id="SVGID_3_" d="M129.239,50.5l-6,30.25l-99.25,9L-4.761,61L2,7.5L106.489,0h105l63,6.25c0,0,24.75,23.75,25,24.75
				s-44,48.5-44,48.5l-0.25-25L131.489,52"/>
		</defs>
		<clipPath id="SVGID_4_">
			<use xlink:href="#SVGID_3_"  overflow="visible"/>
		</clipPath>
		<path clip-path="url(#SVGID_4_)" fill="#FF9900" d="M250.576,27.5c11.212,0,20.333,9.121,20.333,20.333
			s-9.121,20.333-20.333,20.333H29.909c-11.213,0-20.333-9.122-20.333-20.333S18.697,27.5,29.909,27.5H250.576 M250.576,23.5H29.909
			C16.47,23.5,5.576,34.394,5.576,47.833c0,13.438,10.894,24.333,24.333,24.333h220.667c13.438,0,24.333-10.895,24.333-24.333
			C274.909,34.394,264.015,23.5,250.576,23.5L250.576,23.5z"/>
	</g>
</g>
</svg>
